<?xml version="1.0" encoding="UTF-8"?><svg id="Layer_1" xmlns="http://www.w3.org/2000/svg" viewBox="0 0 512 512"><defs><style>.cls-1{fill:#ffab00;}</style></defs><g><path class="cls-1" d="M229.56,432.26c-.15-1.59-.47-3.16-.8-4.72-1.86-8.93-4.56-17.66-6.44-26.59-.02,.05-.04,.1-.06,.15,.01-.05,.03-.1,.06-.15-.9-3.78-1.71-7.59-2.71-11.35-1.27-4.79-2.22-9.59-.54-14.43,1.55-4.47,2.37-9.11,3.59-13.66,1.34-5.02,2.85-9.98,5.51-14.49q.98-1.66,2.68-.9c.2,.09,.41,.33,.59,.06-.27-.85-1.94-.47-1.57-1.64,.31-.99,1.26-1.25,2.32-.56-.2-.54-.94-.69-.58-1.2,.55-.76,1.32-1.02,2.25-.44-.71-.84-.72-.87,.09-1.47,2.83-2.08,5.58-4.25,8.14-6.66,1.49-1.4,1.5-1.39,2.98,.02,.03,.03,.13-.01,.29-.03-.09-.21-.16-.41-.25-.59-.83-1.67-.85-1.77,.86-2.58,2.25-1.07,4.55-2.06,7.09-2.26h0c1.24-.27,2.38-.78,3.43-1.5h0c.49-.27,1-.51,1.46-.83,.54-.38,.75-.21,.89,.36,.77,3.16,.63,6.71-2.72,9.04-2.55,1.78-5.23,3.01-8.49,2.59,.26,.5,.87,.49,1.06,1.05-3.01,1.77-6.15,3.31-9.25,4.91-3.88,2-6.91,4.85-8.8,8.84-1.64,3.47-3.29,6.95-4.93,10.42h0s0,0,0,0c-.36,.45-.64,.93-.76,1.69,.62-.42,.82-.9,1.01-1.4h0c.55-.98,1.1-1.96,1.64-2.94,1.72-3.14,3.44-6.28,5.13-9.45,.39-.73,.71-.85,1.3-.22,.47,.5,1.07,.86,1.96,.91-.53-.56-.96-.98-1.35-1.44-.92-1.07-.75-1.53,.6-2.91,.99-1.02,1.26,.08,1.78,.46,.3,.22,.57,.5,1.11,.96-.33-.9-.68-1.35-1.1-1.71-.5-.43-.5-.75,.1-1.03,3.65-1.75,6.99-4.16,10.97-5.21,.96-.25,1.9-.68,2.91,.25-.86-.84-.36-1.02,.31-1.23,1.03-.32,2.04-.71,3.05-1.07-.03-.08-.05-.17-.08-.25-.74,.15-1.48,.3-2.21,.45-.46,.08-.92,.12-1.33,.17,.19-.07,.37-.2,.53-.4,1.7-.93,3.43-1.81,5.09-2.81,2.81-1.7,4-4.39,3.41-7.62-.25-1.37-.61-2.72-.93-4.07,.05-.12,.03-.26-.08-.35,0-.01,0-.03,0-.04-.03-.01-.06-.02-.09-.02-.97-.51-2.02,.24-2.78,.82-.63,.48-1.24,1.02-1.94,1.41-1.62,.42-2.93,1.49-4.4,2.22-.97,.48-1.21,.23-1.12-.75,.22-2.37-.97-3.96-2.9-5.09-2.67-1.56-3.44-1.32-4.57,1.62-1.15,3-2.33,5.97-4.32,8.54-.42,.54-.67,1.21-.98,1.83-1.54,3.01-2.59,6.35-5.65,8.35-.49,.32-.83,.88-1.21,1.35-3.75,4.72-5.69,10.24-7.01,16.02-1.11,4.89-2.05,9.82-3.76,14.57-.95,2.63-1.22,5.39-.75,8.2,1.04,6.16,3.35,11.98,4.78,18.03h0c.39,2.12,.74,4.25,1.19,6.36,2.67,12.34,5.06,24.71,5.89,37.34,.14,1.33,.31,2.66,.4,4,.63,8.6,.42,17.25,1.38,25.83,.27,2.37,.35,4.77,.98,7.1,.08-1.91,.01-3.8-.11-5.7-.61-9.16-.5-18.36-1.34-27.51-.15-1.66-.31-3.32-.46-4.98,.06-.35-.01-.65-.09-.96,0,0,0,0,0,0h0s0,0,0,0v-3.55c1.45,1.78,2.09,3.87,3,5.96,.2-.43,.08-.66,0-.91-1.13-4.07-2.99-7.93-3.38-12.21Zm23.82-104.48c.2-.19,.47-.32,.66-.51,.67-.35,1.27-.82,1.86-1.29,.37-.29,.74-.57,1.14-.81,.41-.25,.93-.5,1.4-.23,0,0,0,0,.01,0-.39,1.03-1.43,1.41-2.2,2.07-1.05,.48-2.1,.96-3.15,1.44-.46-.44,.09-.51,.28-.69Zm-10.51-5.18c.73,1.86-.28,4.02-2.76,5.83,.92-1.95,1.25-4.14,2.76-5.83Zm-4.64,10.72c-1.01-.15-.75-.57-.41-1.07,1.04-1.5,2.15-2.94,3.45-4.22,1.33-1.3,2.36-2.78,2.49-4.71,.05-.76,.41-.58,.85-.36,2.08,1.04,3.34,3.56,2.97,5.87-.09,.53-.35,.85-.85,1.02-1.9,.65-3.36,1.94-4.73,3.35-2.08,2.15-4.34,4.07-6.81,5.83-.13-2.21,1.41-5.17,3.04-5.7Zm-8.6,110.79s-.05,0-.08,0c0-.13-.01-.27-.01-.4v-.51c0-.41,.02-.8,0-1.15v-.35c.11,.63-.08,1.48,.1,2.42Z"/><path class="cls-1" d="M245.72,466.36c-.04-7.66,0-15.31,2.66-22.64-3.88,7.21-2.88,14.97-2.66,22.64Z"/><path class="cls-1" d="M247.32,389.54c.91,3.95,2.47,7.59,5.16,10.67-1.35-3.79-3.75-7.09-4.88-10.97-.24-.04-.38,.02-.28,.3Z"/><path class="cls-1" d="M272.47,393.17c-2.8-1.42-5.76-2.54-8.35-4.38-.14-.1-.28-.13-.39,.02,3.06,2.6,6.45,4.59,10.38,5.58-.5-.49-1.04-.91-1.64-1.21Z"/><path class="cls-1" d="M263.71,388.85s0,0,0,0t0,0h0s.02-.03,.03-.04c0,0,0,0,0,0,0,0-.01,.02-.02,.03l.02-.03s0,0,0,0c0,.01,0,.02-.01,.04h0Z"/><path class="cls-1" d="M219.99,384.65c-.32-2.62-.66-5.25-.3-7.9-.68,2.67-1.01,5.32,.3,7.9Z"/><path class="cls-1" d="M249.17,425.9c0-.49-.3-.33-.56-.26-2.54,.48-4.94-.21-7.33-.93,2.44,1.74,5.1,1.97,7.9,1.19Z"/><path class="cls-1" d="M241.65,419.71c1.91,1.72,4.25,1.68,6.59,1.69-2.21-.49-4.47-.82-6.59-1.69Z"/><path class="cls-1" d="M271.81,389.99c-1.69-1.46-3.55-2.5-5.82-2.5,2.01,.71,3.77,1.96,5.82,2.5Z"/><path class="cls-1" d="M262.24,398.01c1.29,1.86,2.08,3.73,3,5.55-.02-1.79-1.51-4.57-3-5.55Z"/><path class="cls-1" d="M230.04,387.24c.42-1.42,.92-2.82,.9-4.32-1.08,1.29-1.2,2.77-.9,4.32Z"/><path class="cls-1" d="M261.61,431.01c-.7-1.48-.84-3.16-1.63-4.61,.18,1.66,.23,3.37,1.63,4.61Z"/><path class="cls-1" d="M268.93,375.28c1.82,.22,3.45,1.14,5.26,1.39-1.61-1-3.32-1.62-5.26-1.39Z"/><path class="cls-1" d="M253.53,398.64c-.55-1.06-1.1-2.13-1.66-3.19-.13,1.42,.68,2.36,1.35,3.37,.1-.06,.2-.12,.31-.18Z"/><path class="cls-1" d="M263.12,403.68c-.22,.91,.23,1.57,.93,2.2,.13-.86-.05-1.61-.51-2.29-.11-.16-.38-.07-.42,.09Z"/><path class="cls-1" d="M237.31,403.28c1.29-.3,2.61-.45,4.28-.61-1.54-.42-2.9-.2-4.28,.61Z"/><path class="cls-1" d="M246.99,440.53c.85-.73,1.81-1.35,2.28-2.49-.85,.73-1.7,1.46-2.55,2.18,.09,.1,.18,.2,.27,.31Z"/><path class="cls-1" d="M223.61,369.58c-.71,.79-.25,1.54,0,2.28v-2.28Z"/><path class="cls-1" d="M231.53,386.53c-.05-.05-.26-.05-.31,0-.43,.48-.2,.93,.15,1.56,.22-.63,.58-1.07,.16-1.56Z"/><path class="cls-1" d="M282.3,360.99c-.12-1.94-.64-3.71-2.58-4.61-2.86-1.33-7.12-.14-8.74,2.55-1.77,2.94-3.16,6.09-3.61,9.52-.51,3.87-.81,7.77-1.82,11.54-.82,3.05-1.75,6.08-3.66,8.68-.54,.73-1.18,1.23-2.2,1.03-2.04-.39-4.09-.77-6.14-1.07-2.41-.35-4-1.7-5.07-3.8-.94-1.83-1.49-3.79-1.96-5.76-.6-2.52-1.65-4.96-.99-7.73,.49-2.03,.79-3.89,2.91-5,1.4-.73,2.71-1.8,3.65-3.09,1-1.37,2.35-2.12,3.85-2.47,2.62-.61,4.77-1.95,6.79-3.63,2.07-1.72,3.3-3.7,2.68-6.55-.31-1.43-.62-1.76-1.98-1.25-1.17,.45-2.27,1.12-3.46,1.47-3.12,.93-6.41,.9-9.67,1.45,1.06-1.14,2.22-2.19,3.32-3.29,.5-.5,1.01-.75,1.72-.68,1.63,.17,3.19-.21,4.71-.74,1.1-.38,2.21-.69,3.37-.88,3.64-.58,5.87-2.79,6.6-6.39,.22-1.11-.05-2.36-.74-3.37,0,.16-.04,.29-.02,.41,.62,3.39-1.76,7.37-5.06,8.22-1.89,.49-3.75,1.03-5.61,1.6-1.58,.49-3.16,.84-4.73-.14-.59-.37-1.32-.51-1.99-.76,.53,.71,.92,1.48,1.96,1.81-1.8,1.04-3.01,2.41-4.19,3.78-.95,1.11-2.03,1.97-3.39,2.53-2.48,1.03-4.78,2.41-6.99,3.94-1.66,1.15-2.89,2.62-3.61,4.49-2.06,5.36-4.97,10.27-7.8,15.22-.12,.27,.01,.3,.24,.25,1.18-1.45,2.02-3.12,2.98-4.71,2.05-3.41,3.91-6.93,5.68-10.5,.34-.68,.56-1.32,1.31-.24,.41,.6,1.13,1,2.17,1.26-.63-.7-1.05-1.22-1.53-1.68-.89-.85-.73-1.56,.06-2.42,1.29-1.41,2.9-2.36,4.57-3.15,4.33-2.07,8.36-5.03,13.52-4.75,.42,.02,.8-.15,1.2,.21,1.53,1.41,2.44,1.48,4.27,.44,.78-.44,1.54-.91,2.5-1.48-.11,2.3-1.01,3.95-2.62,5.17-2.42,1.84-5.17,2.97-8.12,3.65-.6,.14-.79-.12-.88-.61-.14-.79-.28-1.57-.43-2.36-.18,.7-.18,1.39-.19,2.07,0,.82-.03,1.59-.43,2.38-1.55,3.09-4.09,4.96-7.23,6.13-1.18,.44-2.3,.94-3.29,2.1,1.36-.23,2.25-1.08,3.48-1.37-.97,5.01-1.68,10.03-6.03,13.49,1.95-1.07,3.51-2.51,4.82-4.3,.52,6.11,.27,12.07-1.91,17.85,1.07-1.11,1.27-2.7,2.16-4.12,.67,2.75,2.09,5.02,2.51,7.6,.43,2.63-.85,5.03-1.25,7.56,1.16-1.72,1.89-3.61,2.26-5.92,.37,.75,.6,1.21,.83,1.66,.02,.28,.33,.37,.42,.61,1.14,2.53,2.32,5.04,4.04,7.22,2.68,3.38,5.89,6.38,7.33,10.79,.25-.54,.05-.8-.05-1.08-.82-2.3-2-4.41-3.37-6.41-3.2-4.68-6.09-9.54-8.66-14.6-2.7-5.29-4.25-10.78-3.16-16.78,.12-.63,.08-1.29,.12-1.94,.79,2.35,1.88,4.46,3.42,6.45-.92-.11-1.29-1.12-2.24-.85,1.76,1.48,3.67,2.52,5.82,3.14,2.04,.58,4.12,1.04,6.09,1.8,2.29,.88,4.82,.99,6.96,2.34,3.06,1.93,5.23,4.65,7.13,7.63-1.91-5.07-5.4-8.55-10.69-10.32,1-.27,1.24-1.28,2.08-1.44,.45-1.5,1.28-2.85,1.65-4.38,.92-3.75,1.49-7.56,2.08-11.37,.64-4.21,1.38-8.36,3.42-12.18,1.8-3.36,4.37-4.71,8.14-4.2,1.06,.14,1.74,.66,2.11,1.66,.61,1.64,.62,3.33,.38,5.01-.71,5.1-1.69,10.16-2.6,15.22-1.06,5.88-2.17,11.75-2.75,17.71-.71,7.35-3.48,14.17-5.7,21.12-.54,1.68-1.5,3.22-2.27,4.83-.58-3.91-1.65-6.98-3.29-8.93-.13,.23,.03,.41,.09,.61,.68,2.32,1.45,4.61,2.1,6.95,.74,2.69-.43,4.52-2.25,6.6,.89-4.01-.94-6.82-3.08-9.53,.41,1.07,.9,2.1,1.41,3.13,.82,1.67,1.32,3.41,1.05,5.27-.39,2.7-.9,5.38-1.85,7.95-.52,1.41-1.37,2.69-1.78,4.16-.91,3.31-1.39,6.67-1.47,10.1-.23,10.41-.27,20.81,2.09,31.05,.24,.02,.39-.03,.25-.31-.03-.43-.05-.86-.1-1.29-.56-4.38-1.33-8.73-1.51-13.16-.17-4.35,.17-8.67,.38-12.99,.22-4.45,.2-8.92,1.2-13.32,.46-2.03,1.79-3.66,2.3-5.62,.51-1.96,1.36-3.76,2.48-5.4,2.77-4.03,4.55-8.52,6.24-13.06,2.67-7.15,4.82-14.44,5.62-22.07,.72-6.89,1.82-13.73,2.93-20.57,.58-3.58,1.54-7.12,1.31-10.8Zm-17.86-10.41c-1.38,1.01-2.84,1.85-4.49,2.3-.46-.13-.9-.07-1.26-.4-.36-.33-.55-.6,.12-.75,1.81-.4,3.5-1.15,5.22-1.81,.24-.09,.57-.4,.77,.04,.13,.29-.17,.47-.36,.61Z"/><path class="cls-1" d="M254.99,338.83c1.26,.1,2.49,.11,3.7,.02,1.62-.12,3.26-.06,4.86-.26,1.99-.25,3.61-1.45,5.19-2.68-1.26-.76-2.45-.29-3.61,.17-2.82,1.13-5.64,2.21-8.72,2.38-.48,.03-.95,.24-1.42,.37Zm12.08-2.59c-1.22,1.39-2.8,1.98-4.65,1.97,1.51-.75,2.92-1.71,4.65-1.97Z"/></g><g><path class="cls-1" d="M252.15,46.22c-1.83,0-3.43-1.37-3.67-3.23-.26-2.03,1.17-3.89,3.2-4.15,.98-.13,1.95,.14,2.74,.74,.78,.6,1.28,1.48,1.41,2.46h0c.13,.98-.14,1.95-.74,2.74-.6,.78-1.48,1.28-2.46,1.41-.16,.02-.32,.03-.48,.03Zm0-5.09c-.06,0-.12,0-.18,.01-.76,.1-1.3,.8-1.2,1.56,.1,.76,.8,1.3,1.56,1.2,.37-.05,.7-.24,.92-.53,.23-.29,.33-.66,.28-1.03h0c-.05-.37-.24-.7-.53-.92-.25-.19-.54-.29-.85-.29Z"/><path class="cls-1" d="M248.79,50.56c-1.83,0-3.43-1.37-3.67-3.23-.26-2.03,1.17-3.89,3.2-4.15,2.03-.26,3.89,1.17,4.15,3.2,.26,2.03-1.17,3.89-3.2,4.15-.16,.02-.32,.03-.48,.03Zm0-5.09c-.06,0-.12,0-.18,.01-.76,.1-1.3,.8-1.2,1.56,.1,.76,.8,1.3,1.56,1.2,.76-.1,1.3-.8,1.2-1.56-.09-.7-.69-1.21-1.38-1.21Z"/><path class="cls-1" d="M245.43,54.91c-.81,0-1.6-.27-2.26-.77-.78-.6-1.28-1.48-1.41-2.46-.26-2.03,1.17-3.89,3.2-4.15,2.03-.26,3.89,1.17,4.15,3.2h0c.26,2.03-1.17,3.89-3.2,4.15-.16,.02-.32,.03-.48,.03Zm0-5.09c-.06,0-.12,0-.18,.01-.76,.1-1.3,.8-1.2,1.56,.05,.37,.24,.7,.53,.92s.66,.32,1.03,.28c.76-.1,1.3-.8,1.2-1.56-.09-.7-.69-1.21-1.38-1.21Z"/><path class="cls-1" d="M242.08,59.26c-1.83,0-3.43-1.37-3.67-3.23-.13-.98,.14-1.95,.74-2.74s1.48-1.28,2.46-1.41c2.02-.26,3.89,1.17,4.15,3.2h0c.26,2.03-1.17,3.89-3.2,4.15-.16,.02-.32,.03-.48,.03Zm0-5.09c-.06,0-.12,0-.18,.01-.37,.05-.7,.24-.92,.53-.23,.29-.33,.66-.28,1.03,.1,.76,.8,1.3,1.56,1.2,.76-.1,1.3-.8,1.2-1.56h0c-.09-.7-.69-1.21-1.38-1.21Z"/><path class="cls-1" d="M238.73,63.6c-1.83,0-3.43-1.37-3.67-3.23-.26-2.03,1.17-3.89,3.2-4.15,.98-.13,1.95,.14,2.74,.74s1.28,1.48,1.41,2.46c.13,.98-.14,1.95-.74,2.74s-1.48,1.28-2.46,1.41c-.16,.02-.32,.03-.48,.03Zm0-5.09c-.06,0-.12,0-.18,.01-.76,.1-1.3,.8-1.2,1.56s.8,1.3,1.56,1.2c.37-.05,.7-.24,.92-.53,.23-.29,.33-.66,.28-1.03s-.24-.7-.53-.92c-.25-.19-.54-.29-.85-.29Z"/><path class="cls-1" d="M235.37,67.95c-1.83,0-3.43-1.37-3.67-3.23-.26-2.03,1.17-3.89,3.2-4.15,2.03-.26,3.89,1.17,4.15,3.2,.26,2.03-1.17,3.89-3.2,4.15-.16,.02-.32,.03-.48,.03Zm0-5.09c-.06,0-.12,0-.18,.01-.76,.1-1.3,.8-1.2,1.56,.1,.76,.8,1.3,1.56,1.2,.76-.1,1.3-.8,1.2-1.56h0c-.09-.7-.69-1.21-1.38-1.21Z"/><path class="cls-1" d="M232.01,72.3c-.81,0-1.6-.27-2.26-.77-.78-.6-1.28-1.48-1.41-2.46-.26-2.03,1.17-3.89,3.2-4.15,2.03-.26,3.89,1.17,4.15,3.2,.26,2.03-1.17,3.89-3.2,4.15-.16,.02-.32,.03-.48,.03Zm0-5.09c-.06,0-.12,0-.18,.01-.76,.1-1.3,.8-1.2,1.56,.05,.37,.24,.7,.53,.92,.29,.23,.66,.33,1.03,.28,.76-.1,1.3-.8,1.2-1.56-.09-.7-.69-1.21-1.38-1.21Z"/><path class="cls-1" d="M228.66,76.64c-1.83,0-3.43-1.37-3.67-3.23-.13-.98,.14-1.95,.74-2.74,.6-.78,1.48-1.28,2.46-1.41,2.03-.26,3.89,1.17,4.15,3.2,.26,2.03-1.17,3.89-3.2,4.15-.16,.02-.32,.03-.48,.03Zm0-5.09c-.06,0-.12,0-.18,.01-.37,.05-.7,.24-.92,.53-.23,.29-.33,.66-.28,1.03,.1,.76,.8,1.3,1.56,1.2,.76-.1,1.3-.8,1.2-1.56-.09-.7-.69-1.21-1.38-1.21Z"/><path class="cls-1" d="M225.31,80.99c-1.83,0-3.43-1.37-3.67-3.23-.26-2.03,1.17-3.89,3.2-4.15,2.02-.26,3.89,1.17,4.15,3.2h0c.26,2.03-1.17,3.89-3.2,4.15-.16,.02-.32,.03-.48,.03Zm0-5.09c-.06,0-.12,0-.18,.01-.76,.1-1.3,.8-1.2,1.56,.1,.76,.8,1.3,1.56,1.2,.76-.1,1.3-.8,1.2-1.56h0c-.09-.7-.69-1.21-1.38-1.21Z"/><path class="cls-1" d="M221.95,85.34c-1.83,0-3.43-1.37-3.67-3.23-.26-2.03,1.17-3.89,3.2-4.15,2.03-.26,3.89,1.17,4.15,3.2,.13,.98-.14,1.95-.74,2.74s-1.48,1.28-2.46,1.41c-.16,.02-.32,.03-.48,.03Zm0-5.09c-.06,0-.12,0-.18,.01-.76,.1-1.3,.8-1.2,1.56,.1,.76,.8,1.3,1.56,1.2,.37-.05,.7-.24,.92-.53,.23-.29,.33-.66,.28-1.03-.09-.7-.69-1.21-1.38-1.21Z"/><path class="cls-1" d="M218.59,89.68c-.81,0-1.6-.27-2.26-.77-.78-.6-1.28-1.48-1.41-2.46-.26-2.03,1.17-3.89,3.2-4.15,2.03-.26,3.89,1.17,4.15,3.2h0c.26,2.03-1.17,3.89-3.2,4.15-.16,.02-.32,.03-.48,.03Zm0-5.09c-.06,0-.12,0-.18,.01-.76,.1-1.3,.8-1.2,1.56,.05,.37,.24,.7,.53,.92,.29,.23,.66,.32,1.03,.28,.76-.1,1.3-.8,1.2-1.56-.09-.7-.69-1.21-1.38-1.21Z"/><path class="cls-1" d="M215.24,94.03c-1.83,0-3.43-1.37-3.67-3.23-.13-.98,.14-1.95,.74-2.74s1.48-1.28,2.46-1.41c2.03-.26,3.89,1.17,4.15,3.2,.26,2.03-1.17,3.89-3.2,4.15-.16,.02-.32,.03-.48,.03Zm0-5.09c-.06,0-.12,0-.18,.01-.37,.05-.7,.24-.92,.53-.23,.29-.33,.66-.28,1.03,.1,.76,.8,1.3,1.56,1.2,.76-.1,1.3-.8,1.2-1.56-.09-.7-.69-1.21-1.38-1.21Z"/><path class="cls-1" d="M211.89,98.38c-1.83,0-3.43-1.37-3.67-3.23-.26-2.03,1.17-3.89,3.2-4.15,.98-.13,1.95,.14,2.74,.74s1.28,1.48,1.41,2.46c.26,2.03-1.17,3.89-3.2,4.15-.16,.02-.32,.03-.48,.03Zm0-5.09c-.06,0-.12,0-.18,.01-.76,.1-1.3,.8-1.2,1.56,.1,.76,.8,1.3,1.56,1.2,.76-.1,1.3-.8,1.2-1.56-.05-.37-.24-.7-.53-.92-.25-.19-.54-.29-.85-.29Z"/><path class="cls-1" d="M208.53,102.72c-1.83,0-3.43-1.37-3.67-3.23-.26-2.03,1.17-3.89,3.2-4.15,2.02-.26,3.89,1.17,4.15,3.2h0c.26,2.03-1.17,3.89-3.2,4.15-.16,.02-.32,.03-.48,.03Zm0-5.09c-.06,0-.12,0-.18,.01-.76,.1-1.3,.8-1.2,1.56,.1,.76,.8,1.3,1.56,1.2,.76-.1,1.3-.8,1.2-1.56h0c-.09-.7-.69-1.21-1.38-1.21Z"/><path class="cls-1" d="M205.06,107.82c-1.83,0-3.43-1.37-3.67-3.23-.26-2.03,1.17-3.89,3.2-4.15,2.03-.26,3.89,1.17,4.15,3.2,.26,2.03-1.17,3.89-3.2,4.15-.16,.02-.32,.03-.48,.03Zm0-5.09c-.06,0-.12,0-.18,.01-.76,.1-1.3,.8-1.2,1.56,.1,.76,.8,1.3,1.56,1.2,.76-.1,1.3-.8,1.2-1.56-.09-.7-.69-1.21-1.38-1.21Z"/><path class="cls-1" d="M201.7,112.17c-1.83,0-3.43-1.37-3.67-3.23-.26-2.03,1.17-3.89,3.2-4.15,.98-.13,1.95,.14,2.74,.74,.78,.6,1.28,1.48,1.41,2.46,.13,.98-.14,1.95-.74,2.74-.6,.78-1.48,1.28-2.46,1.41-.16,.02-.32,.03-.48,.03Zm0-5.09c-.06,0-.12,0-.18,.01-.76,.1-1.3,.8-1.2,1.56,.1,.76,.8,1.3,1.56,1.2,.37-.05,.7-.24,.92-.53s.33-.66,.28-1.03h0c-.05-.37-.24-.7-.53-.92-.25-.19-.54-.29-.85-.29Z"/><path class="cls-1" d="M198.63,116.68c-1.83,0-3.43-1.37-3.67-3.23-.13-.98,.14-1.95,.74-2.74,.6-.78,1.48-1.28,2.46-1.41,2.03-.26,3.89,1.17,4.15,3.2h0c.26,2.03-1.17,3.89-3.2,4.15-.16,.02-.32,.03-.48,.03Zm0-5.09c-.06,0-.12,0-.18,.01-.37,.05-.7,.24-.92,.53-.23,.29-.33,.66-.28,1.03,.1,.76,.8,1.3,1.56,1.2,.76-.1,1.3-.8,1.2-1.56-.09-.7-.69-1.21-1.38-1.21Z"/><path class="cls-1" d="M196.09,121.78c-1.83,0-3.43-1.37-3.67-3.23-.26-2.03,1.17-3.89,3.2-4.15,2.03-.26,3.89,1.17,4.15,3.2,.26,2.03-1.17,3.89-3.2,4.15-.16,.02-.32,.03-.48,.03Zm0-5.09c-.06,0-.12,0-.18,.01-.76,.1-1.3,.8-1.2,1.56,.1,.76,.8,1.3,1.56,1.2,.76-.1,1.3-.8,1.2-1.56-.09-.7-.69-1.21-1.38-1.21Z"/><path class="cls-1" d="M193.16,126.87c-1.83,0-3.43-1.37-3.67-3.23-.26-2.03,1.17-3.89,3.2-4.15,2.02-.26,3.89,1.18,4.15,3.2,.13,.98-.14,1.95-.74,2.74-.6,.78-1.48,1.28-2.46,1.41-.16,.02-.32,.03-.48,.03Zm0-5.09c-.06,0-.12,0-.18,.01-.76,.1-1.3,.8-1.2,1.56,.1,.76,.8,1.3,1.56,1.2,.37-.05,.7-.24,.92-.53,.23-.29,.33-.66,.28-1.03-.09-.7-.69-1.21-1.38-1.21Z"/><path class="cls-1" d="M190.61,131.97c-1.83,0-3.43-1.37-3.67-3.23-.26-2.03,1.17-3.89,3.2-4.15,2.03-.26,3.89,1.17,4.15,3.2,.26,2.03-1.17,3.89-3.2,4.15-.16,.02-.32,.03-.48,.03Zm0-5.09c-.06,0-.12,0-.18,.01-.76,.1-1.3,.8-1.2,1.56,.1,.76,.8,1.3,1.56,1.2,.76-.1,1.3-.8,1.2-1.56-.09-.7-.69-1.21-1.38-1.21Z"/><path class="cls-1" d="M188.89,137.06c-.81,0-1.6-.27-2.26-.77-.78-.6-1.28-1.48-1.41-2.46-.26-2.03,1.17-3.89,3.2-4.15,2.03-.26,3.89,1.17,4.15,3.2h0c.26,2.03-1.17,3.89-3.2,4.15-.16,.02-.32,.03-.48,.03Zm0-5.09c-.06,0-.12,0-.18,.01-.76,.1-1.3,.8-1.2,1.56,.05,.37,.24,.7,.53,.92,.29,.23,.66,.32,1.03,.28,.76-.1,1.3-.8,1.2-1.56-.09-.7-.69-1.21-1.38-1.21Z"/><path class="cls-1" d="M187.69,142.16c-1.83,0-3.43-1.37-3.67-3.23-.26-2.03,1.17-3.89,3.2-4.15,.98-.13,1.95,.14,2.74,.74,.78,.6,1.28,1.48,1.41,2.46,.26,2.03-1.17,3.89-3.2,4.15-.16,.02-.32,.03-.48,.03Zm0-5.09c-.06,0-.12,0-.18,.01-.76,.1-1.3,.8-1.2,1.56s.8,1.3,1.56,1.2c.76-.1,1.3-.8,1.2-1.56-.05-.37-.24-.7-.53-.92-.25-.19-.54-.29-.85-.29Z"/><path class="cls-1" d="M187.2,147.81c-1.83,0-3.43-1.37-3.67-3.23-.26-2.03,1.17-3.89,3.2-4.15,.98-.13,1.95,.14,2.74,.74,.78,.6,1.28,1.48,1.41,2.46,.26,2.03-1.17,3.89-3.2,4.15-.16,.02-.32,.03-.48,.03Zm0-5.09c-.06,0-.12,0-.18,.01-.76,.1-1.3,.8-1.2,1.56,.1,.76,.8,1.3,1.56,1.2,.76-.1,1.3-.8,1.2-1.56h0c-.05-.37-.24-.7-.53-.92-.25-.19-.54-.29-.85-.29Z"/><path class="cls-1" d="M187.2,153.47c-1.83,0-3.43-1.37-3.67-3.23-.26-2.03,1.17-3.89,3.2-4.15,2.02-.26,3.89,1.17,4.15,3.2,.13,.98-.14,1.95-.74,2.74s-1.48,1.28-2.46,1.41c-.16,.02-.32,.03-.48,.03Zm0-5.09c-.06,0-.12,0-.18,.01-.76,.1-1.3,.8-1.2,1.56,.1,.76,.8,1.3,1.56,1.2,.37-.05,.7-.24,.92-.53,.23-.29,.33-.66,.28-1.03-.09-.7-.69-1.21-1.38-1.21Z"/><path class="cls-1" d="M187.69,159.13c-1.83,0-3.43-1.37-3.67-3.23-.26-2.03,1.17-3.89,3.2-4.15,.98-.13,1.95,.14,2.74,.74,.78,.6,1.28,1.48,1.41,2.46,.26,2.03-1.17,3.89-3.2,4.15-.16,.02-.32,.03-.48,.03Zm0-5.09c-.06,0-.12,0-.18,.01-.37,.05-.7,.24-.92,.53s-.33,.66-.28,1.03c.1,.76,.8,1.3,1.56,1.2,.76-.1,1.3-.8,1.2-1.56-.05-.37-.24-.7-.53-.92-.25-.19-.54-.29-.85-.29Z"/><path class="cls-1" d="M189.74,164.22c-1.83,0-3.43-1.37-3.67-3.23-.13-.98,.14-1.95,.74-2.74s1.48-1.28,2.46-1.41c2.02-.26,3.89,1.17,4.15,3.2h0c.26,2.03-1.17,3.89-3.2,4.15-.16,.02-.32,.03-.48,.03Zm0-5.09c-.06,0-.12,0-.18,.01-.37,.05-.7,.24-.92,.53-.23,.29-.33,.66-.28,1.03,.1,.76,.8,1.3,1.56,1.2,.76-.1,1.3-.8,1.2-1.56h0c-.09-.7-.69-1.21-1.38-1.21Z"/><path class="cls-1" d="M243.52,79.42c-3.88-13.03,.77-19.89,.97-20.18l1-1.44,.93,1.49c3.13,5.02,10,8.22,10.07,8.25l-.97,2.1c-.28-.13-6.18-2.87-9.91-7.51-1.02,2.55-2.4,8.16,.12,16.62l-2.22,.66Z"/><path class="cls-1" d="M231.52,169.52c-.13-.17-12.55-17.51-1.08-31.41l.06-.06c2.39-2.49,4.59-3.94,6.71-4.43l2.63-.6-1.37,2.32c-.05,.09-5.28,9.03-3.13,16.55,.93,3.26,3.15,5.82,6.59,7.61l-1.07,2.05c-4.03-2.1-6.64-5.14-7.74-9.04-1.61-5.66,.32-11.76,1.86-15.31-.88,.61-1.81,1.42-2.77,2.42-10.27,12.5,1.07,28.38,1.19,28.54l-1.87,1.36Z"/><path class="cls-1" d="M225.14,177.94l-2.31-.07,1.16,.03-1.16-.03c0-.13,.23-12.72-9.33-18.45-10.01-6-7.16-12.93-7.03-13.22l.65-1.5c-.22-.45-.4-.94-.54-1.47-.73-2.86,.23-6.12,2.51-8.49,1.74-1.82,5.74-4.63,12.93-3.11,.29,.05,7.73,1.52,9.1,8.82l-2.27,.43c-1.08-5.73-7.03-6.93-7.28-6.98-6.12-1.29-9.4,.98-10.81,2.45-1.73,1.8-2.48,4.23-1.94,6.32,.22,.86,.59,1.54,1.1,2.02,1,.95,2.26,1.2,3.2,.66,1.02-.59,1.37-1.95,.96-3.65-.09-.37-.27-.58-.6-.7-.64-.25-1.53-.05-1.76,.1l-1.95,1.33,.12-2.34c.08-1.33,.69-2.47,1.72-3.21,.83-.6,1.89-.91,2.91-.85,2.36,.15,4.37,1.92,4.9,4.32,.56,2.55,.16,6.98-3.27,8.74-3.31,1.69-6.06,.98-7.83-.16,.02,1.98,1.01,5.32,6.38,8.53,10.74,6.44,10.47,19.93,10.45,20.5Zm-11.91-39.37c.35,.03,.69,.11,1.02,.23,1.06,.39,1.8,1.22,2.07,2.34,.79,3.24-.54,5.33-2.05,6.2-.05,.03-.11,.06-.17,.09,.31-.11,.64-.25,.97-.42,2.12-1.09,2.48-4.27,2.06-6.18-.31-1.39-1.45-2.42-2.79-2.51-.3-.02-.73,.04-1.14,.25Z"/><path class="cls-1" d="M255.87,215.71c-19.63-2.3-31.87-9.24-32.38-9.53-15.32-9.15-18.98-20.51-19.35-28.44-.4-8.59,2.8-14.93,2.94-15.19l.49-.96,.99,.42c16.82,7.17,16.68,17.21,16.67,17.64l-2.31-.08,1.16,.04-1.16-.03c0-.09-.02-8.54-14.22-14.98-.84,2.04-2.54,7.03-2.24,13.13,.54,10.66,6.67,19.56,18.21,26.45,.11,.06,12.36,6.99,31.48,9.23l-.27,2.3Z"/><path class="cls-1" d="M218.58,202.88c-13.5-8.74-17.95-18.71-18.13-19.13l2.12-.92c.04,.1,4.39,9.77,17.27,18.11l-1.26,1.94Z"/><path class="cls-1" d="M222.09,205.3c-18.74-9.61-28.21-20.33-32.86-27.62-5.1-8.01-5.7-13.71-5.72-13.95l-.17-1.74,1.67,.52c18.49,5.82,21.4,15.85,21.51,16.27l-2.23,.61c-.03-.09-2.6-8.6-18.11-14.05,.56,2.22,1.91,6.27,5.1,11.24,4.51,7.01,13.69,17.33,31.87,26.66l-1.06,2.06Z"/><path class="cls-1" d="M256.16,218.06c-15.13,0-15.13-1.35-15.13-2.33s0-2.33,15.13-2.33v2.31c-.8,0-1.57,0-2.3,.02,.73,0,1.5,.02,2.3,.02v2.31Z"/><path class="cls-1" d="M254.01,246.36c-3.39,0-6.69-.16-9.83-.47-4.99-.5-7.78-1.2-7.9-1.23-.12-.03-.23-.08-.34-.15-6.01-3.85-5.19-17.21-5.15-17.78,.01-.19,.07-.37,.17-.53,4.48-7.31,24.23-6.95,25.06-6.94l-.05,2.31c-5.26-.11-19.46,.68-22.89,5.6-.19,3.66,.17,12.63,3.96,15.28,.69,.16,3.28,.72,7.37,1.13,3.67,.36,7.56,.51,11.57,.44l.04,2.31c-.67,.01-1.34,.02-2.01,.02Z"/><path class="cls-1" d="M233.41,241.56c-.1-1.22,.3-2.35,1.19-3.36,4.3-4.86,19.62-5.6,21.35-5.66l.09,2.31c-4.43,.17-16.62,1.39-19.71,4.89-.47,.53-.67,1.05-.62,1.64l-2.31,.19Z"/><path class="cls-1" d="M245.22,235.2c-1.48-3.57-1.27-13.67-1.26-14.1l2.31,.05c-.06,2.78,.02,10.57,1.09,13.17l-2.14,.88Z"/><path class="cls-1" d="M239.37,237.34c-3.86-2.27-3.38-12.4-3.24-14.41v-.13s.05-.13,.05-.13c2-6.51,19.13-6.9,21.07-6.92l.03,2.31c-6.63,.08-17.52,1.55-18.85,5.17-.27,4.4,.2,10.98,2.12,12.11l-1.17,1.99Z"/><path class="cls-1" d="M236.67,258.5c-1.08-3.63-.83-6.95,.73-9.61,1.52-2.59,4.23-4.44,7.62-5.19l.5,2.26c-2.76,.62-4.94,2.08-6.13,4.11-1.23,2.09-1.4,4.78-.51,7.78l-2.22,.66Z"/><path class="cls-1" d="M249.29,269.89h-2.31v-7.42c0-4.13,7.52-4.41,9.02-4.42l.02,2.31c-2.75,.03-6.73,.8-6.73,2.11v7.42Z"/><path class="cls-1" d="M326.8,164.73l-1.98-1.2c5.87-9.64,9.48-23.34-8.25-51.82-15.21-24.43-54.15-72.37-60.56-80.22-6.4,7.84-45.35,55.8-60.56,80.23-17.74,28.49-14.13,42.18-8.27,51.81l-1.98,1.2c-6.23-10.24-10.12-24.69,8.28-54.24,16.39-26.32,60.1-79.7,61.6-81.52,.11-.14,.24-.26,.41-.35,.48-.24,1.07-.12,1.41,.3,.45,.55,45.04,54.92,61.63,81.57,18.4,29.54,14.5,44,8.27,54.24Z"/><path class="cls-1" d="M259.87,46.21c-.16,0-.32-.01-.48-.03-2.03-.26-3.46-2.12-3.2-4.15,.26-2.03,2.12-3.46,4.15-3.2,.98,.13,1.85,.63,2.46,1.41,.6,.78,.87,1.76,.74,2.74-.13,.98-.63,1.85-1.41,2.46-.65,.51-1.44,.77-2.26,.77Zm0-5.09c-.69,0-1.29,.51-1.38,1.21-.1,.76,.44,1.46,1.2,1.56,.37,.05,.73-.05,1.03-.28,.29-.23,.48-.55,.53-.92s-.05-.73-.28-1.03-.55-.48-.92-.53c-.06,0-.12-.01-.18-.01Z"/><path class="cls-1" d="M263.22,50.56c-.16,0-.32,0-.48-.03-2.03-.26-3.46-2.12-3.2-4.15h0c.26-2.03,2.12-3.46,4.15-3.2,.98,.13,1.85,.63,2.46,1.41,.6,.78,.87,1.75,.74,2.74-.24,1.87-1.84,3.23-3.67,3.23Zm-1.38-3.88c-.1,.76,.44,1.46,1.2,1.56,.76,.1,1.46-.44,1.56-1.2,.05-.37-.05-.73-.28-1.03-.23-.29-.55-.48-.92-.53-.76-.1-1.46,.44-1.56,1.2h0Z"/><path class="cls-1" d="M266.57,54.9c-.16,0-.32,0-.48-.03-.98-.13-1.85-.63-2.46-1.41s-.87-1.76-.74-2.74h0c.13-.98,.63-1.85,1.41-2.46,.78-.6,1.75-.87,2.74-.74,2.03,.26,3.46,2.12,3.2,4.15-.24,1.87-1.84,3.23-3.67,3.23Zm0-5.09c-.31,0-.6,.1-.85,.29-.29,.23-.48,.55-.53,.92h0c-.05,.37,.05,.73,.28,1.03,.23,.29,.55,.48,.92,.53,.76,.1,1.46-.44,1.56-1.2,.1-.76-.44-1.46-1.2-1.56-.06,0-.12-.01-.18-.01Z"/><path class="cls-1" d="M269.93,59.25c-.16,0-.32,0-.48-.03-.98-.13-1.85-.63-2.46-1.41-.6-.78-.87-1.76-.74-2.74,.26-2.03,2.12-3.46,4.15-3.2,2.03,.26,3.46,2.12,3.2,4.15-.24,1.87-1.84,3.23-3.67,3.23Zm0-5.09c-.31,0-.6,.1-.85,.29-.29,.23-.48,.55-.53,.92h0c-.05,.37,.05,.73,.28,1.03,.23,.29,.55,.48,.92,.53,.76,.1,1.46-.44,1.56-1.2,.1-.76-.44-1.46-1.2-1.56-.06,0-.12-.01-.18-.01Z"/><path class="cls-1" d="M273.29,63.6c-.16,0-.32-.01-.48-.03-2.03-.26-3.46-2.12-3.2-4.15h0c.26-2.03,2.12-3.46,4.15-3.2,2.03,.26,3.46,2.12,3.2,4.15-.13,.98-.63,1.85-1.41,2.46-.65,.51-1.44,.77-2.26,.77Zm-1.39-3.88h0c-.1,.76,.44,1.46,1.2,1.56,.37,.05,.73-.05,1.03-.28,.29-.23,.48-.55,.53-.92,.1-.76-.44-1.46-1.2-1.56-.76-.1-1.46,.44-1.56,1.2Z"/><path class="cls-1" d="M276.64,67.95c-.16,0-.32,0-.48-.03-2.03-.26-3.46-2.12-3.2-4.15,.26-2.03,2.12-3.46,4.15-3.2,.98,.13,1.85,.63,2.46,1.41,.6,.78,.87,1.76,.74,2.74-.24,1.87-1.84,3.23-3.67,3.23Zm0-5.09c-.69,0-1.29,.51-1.38,1.21-.1,.76,.44,1.46,1.2,1.56,.76,.1,1.46-.44,1.56-1.2,.05-.37-.05-.73-.28-1.03-.23-.29-.55-.48-.92-.53-.06,0-.12-.01-.18-.01Z"/><path class="cls-1" d="M279.99,72.29c-.16,0-.32,0-.48-.03-.98-.13-1.85-.63-2.46-1.41-.6-.78-.87-1.76-.74-2.74,.13-.98,.63-1.85,1.41-2.46,.78-.6,1.75-.87,2.74-.74,2.03,.26,3.46,2.12,3.2,4.15-.24,1.87-1.84,3.23-3.67,3.23Zm0-5.09c-.31,0-.6,.1-.85,.29-.29,.23-.48,.55-.53,.92h0c-.05,.37,.05,.73,.28,1.03,.23,.29,.55,.48,.92,.53,.76,.1,1.46-.44,1.56-1.2,.05-.37-.05-.73-.28-1.03-.23-.29-.55-.48-.92-.53-.06,0-.12-.01-.18-.01Z"/><path class="cls-1" d="M283.35,76.64c-.16,0-.32,0-.48-.03-2.03-.26-3.46-2.12-3.2-4.15h0c.13-.98,.63-1.85,1.41-2.46,.78-.6,1.75-.87,2.74-.74,2.03,.26,3.46,2.12,3.2,4.15-.24,1.87-1.84,3.23-3.67,3.23Zm0-5.09c-.31,0-.6,.1-.85,.29-.29,.23-.48,.55-.53,.92h0c-.1,.76,.44,1.46,1.2,1.56,.76,.1,1.46-.44,1.56-1.2,.1-.76-.44-1.46-1.2-1.56-.06,0-.12-.01-.18-.01Z"/><path class="cls-1" d="M286.71,80.99c-.16,0-.32-.01-.48-.03-2.03-.26-3.46-2.12-3.2-4.15,.26-2.03,2.12-3.46,4.15-3.2,2.03,.26,3.46,2.12,3.2,4.15-.13,.98-.63,1.85-1.41,2.46-.65,.51-1.44,.77-2.26,.77Zm0-5.09c-.69,0-1.29,.51-1.38,1.21-.1,.76,.44,1.46,1.2,1.56,.37,.05,.73-.05,1.03-.28,.29-.23,.48-.55,.53-.92,.1-.76-.44-1.46-1.2-1.56-.06,0-.12-.01-.18-.01Z"/><path class="cls-1" d="M290.06,85.33c-.16,0-.32,0-.48-.03-2.03-.26-3.46-2.12-3.2-4.15h0c.26-2.03,2.12-3.46,4.15-3.2,.98,.13,1.85,.63,2.46,1.41s.87,1.75,.74,2.74c-.24,1.87-1.84,3.23-3.67,3.23Zm-1.38-3.88c-.1,.76,.44,1.46,1.2,1.56,.76,.1,1.46-.44,1.56-1.2,.05-.37-.05-.73-.28-1.03-.23-.29-.55-.48-.92-.53-.76-.1-1.46,.44-1.56,1.2h0Z"/><path class="cls-1" d="M293.41,89.68c-.16,0-.32,0-.48-.03-.98-.13-1.85-.63-2.46-1.41-.6-.78-.87-1.76-.74-2.74h0c.13-.98,.63-1.85,1.41-2.46,.78-.6,1.75-.87,2.74-.74,2.03,.26,3.46,2.12,3.2,4.15-.24,1.87-1.84,3.23-3.67,3.23Zm0-5.09c-.31,0-.6,.1-.85,.29-.29,.23-.48,.55-.53,.92h0c-.05,.37,.05,.73,.28,1.03,.23,.29,.55,.48,.92,.53,.76,.1,1.46-.44,1.56-1.2,.1-.76-.44-1.46-1.2-1.56-.06,0-.12-.01-.18-.01Z"/><path class="cls-1" d="M296.77,94.03c-.16,0-.32,0-.48-.03-.98-.13-1.85-.63-2.46-1.41-.6-.78-.87-1.76-.74-2.74,.26-2.03,2.12-3.46,4.15-3.2,2.03,.26,3.46,2.12,3.2,4.15-.24,1.87-1.84,3.23-3.67,3.23Zm0-5.09c-.69,0-1.29,.51-1.38,1.21h0c-.05,.37,.05,.73,.28,1.03,.23,.29,.55,.48,.92,.53,.76,.1,1.46-.44,1.56-1.2,.1-.76-.44-1.46-1.2-1.56-.06,0-.12-.01-.18-.01Z"/><path class="cls-1" d="M300.13,98.37c-.16,0-.32-.01-.48-.03-2.03-.26-3.46-2.12-3.2-4.15h0c.26-2.03,2.12-3.46,4.15-3.2,2.03,.26,3.46,2.12,3.2,4.15-.13,.98-.63,1.85-1.41,2.46-.65,.51-1.44,.77-2.26,.77Zm-1.39-3.88h0c-.1,.76,.44,1.46,1.2,1.56,.37,.05,.73-.05,1.03-.28,.29-.23,.48-.55,.53-.92,.1-.76-.44-1.46-1.2-1.56-.76-.1-1.46,.44-1.56,1.2Z"/><path class="cls-1" d="M303.48,102.72c-.16,0-.32,0-.48-.03-2.03-.26-3.46-2.12-3.2-4.15,.26-2.03,2.12-3.46,4.15-3.2,.98,.13,1.85,.63,2.46,1.41,.6,.78,.87,1.76,.74,2.74-.24,1.87-1.84,3.23-3.67,3.23Zm0-5.09c-.69,0-1.29,.51-1.38,1.21-.1,.76,.44,1.46,1.2,1.56,.76,.1,1.46-.44,1.56-1.2,.05-.37-.05-.73-.28-1.03-.23-.29-.55-.48-.92-.53-.06,0-.12-.01-.18-.01Z"/><path class="cls-1" d="M306.95,107.81c-.16,0-.32,0-.48-.03-2.03-.26-3.46-2.12-3.2-4.15h0c.26-2.03,2.12-3.46,4.15-3.2,2.03,.26,3.46,2.12,3.2,4.15-.24,1.87-1.84,3.23-3.67,3.23Zm-1.38-3.88h0c-.1,.76,.44,1.46,1.2,1.56,.76,.1,1.46-.44,1.56-1.2,.1-.76-.44-1.46-1.2-1.56-.76-.1-1.46,.44-1.56,1.2Z"/><path class="cls-1" d="M310.31,112.16c-.16,0-.32-.01-.48-.03-2.03-.26-3.46-2.12-3.2-4.15,.26-2.03,2.12-3.46,4.15-3.2,.98,.13,1.85,.63,2.46,1.41,.6,.78,.87,1.76,.74,2.74-.13,.98-.63,1.85-1.41,2.46-.65,.51-1.44,.77-2.26,.77Zm0-5.09c-.69,0-1.29,.51-1.38,1.21-.1,.76,.44,1.46,1.2,1.56,.37,.05,.73-.05,1.03-.28,.29-.23,.48-.55,.53-.92s-.05-.73-.28-1.03c-.23-.29-.55-.48-.92-.53-.06,0-.12-.01-.18-.01Z"/><path class="cls-1" d="M313.37,116.68c-.16,0-.32,0-.48-.03-2.03-.26-3.46-2.12-3.2-4.15,.26-2.03,2.12-3.46,4.15-3.2,2.03,.26,3.46,2.12,3.2,4.15-.24,1.87-1.84,3.23-3.67,3.23Zm0-5.09c-.69,0-1.29,.51-1.38,1.21-.1,.76,.44,1.46,1.2,1.56,.76,.1,1.46-.44,1.56-1.2,.1-.76-.44-1.46-1.2-1.56-.06,0-.12-.01-.18-.01Z"/><path class="cls-1" d="M315.92,121.77c-.16,0-.32,0-.48-.03-2.03-.26-3.46-2.12-3.2-4.15h0c.26-2.03,2.12-3.46,4.15-3.2,2.03,.26,3.46,2.12,3.2,4.15-.24,1.87-1.84,3.23-3.67,3.23Zm0-5.09c-.69,0-1.29,.51-1.38,1.21h0c-.1,.76,.44,1.46,1.2,1.56,.76,.1,1.46-.44,1.56-1.2,.1-.76-.44-1.46-1.2-1.56-.06,0-.12-.01-.18-.01Z"/><path class="cls-1" d="M318.85,126.87c-.16,0-.32,0-.48-.03-2.03-.26-3.46-2.12-3.2-4.15h0c.26-2.03,2.12-3.46,4.15-3.2,.98,.13,1.85,.63,2.46,1.41,.6,.78,.87,1.75,.74,2.74-.24,1.87-1.84,3.23-3.67,3.23Zm-1.38-3.88c-.1,.76,.44,1.46,1.2,1.56,.76,.1,1.46-.44,1.56-1.2,.05-.37-.05-.73-.28-1.03-.23-.29-.55-.48-.92-.53-.76-.1-1.46,.44-1.56,1.2h0Z"/><path class="cls-1" d="M321.4,131.96c-.16,0-.32-.01-.48-.03-2.03-.26-3.46-2.12-3.2-4.15,.26-2.03,2.12-3.46,4.15-3.2,2.03,.26,3.46,2.12,3.2,4.15-.13,.98-.63,1.85-1.41,2.46-.65,.51-1.44,.77-2.26,.77Zm0-5.09c-.69,0-1.29,.51-1.38,1.21-.1,.76,.44,1.46,1.2,1.56,.37,.05,.73-.05,1.03-.28,.29-.23,.48-.55,.53-.92,.1-.76-.44-1.46-1.2-1.56-.06,0-.12-.01-.18-.01Z"/><path class="cls-1" d="M323.11,137.06c-.16,0-.32,0-.48-.03-.98-.13-1.85-.63-2.46-1.41s-.87-1.75-.74-2.74c.26-2.03,2.12-3.46,4.15-3.2,2.03,.26,3.46,2.12,3.2,4.15-.24,1.87-1.84,3.23-3.67,3.23Zm0-5.09c-.69,0-1.29,.51-1.38,1.21-.05,.37,.05,.73,.28,1.03,.23,.29,.55,.48,.92,.53,.76,.1,1.46-.44,1.56-1.2,.1-.76-.44-1.46-1.2-1.56-.06,0-.12-.01-.18-.01Z"/><path class="cls-1" d="M324.32,142.15c-.16,0-.32-.01-.48-.03-2.03-.26-3.46-2.12-3.2-4.15h0c.26-2.03,2.12-3.46,4.15-3.2,2.03,.26,3.46,2.12,3.2,4.15-.13,.98-.63,1.85-1.41,2.46-.65,.51-1.44,.77-2.26,.77Zm-1.39-3.88h0c-.1,.76,.44,1.46,1.2,1.56,.37,.05,.73-.05,1.03-.28,.29-.23,.48-.55,.53-.92,.1-.76-.44-1.46-1.2-1.56-.76-.1-1.46,.44-1.56,1.2Z"/><path class="cls-1" d="M324.82,147.81c-.16,0-.32-.01-.48-.03-2.03-.26-3.46-2.12-3.2-4.15,.26-2.03,2.12-3.46,4.15-3.2,.98,.13,1.85,.63,2.46,1.41s.87,1.75,.74,2.74c-.13,.98-.63,1.85-1.41,2.46-.65,.51-1.44,.77-2.26,.77Zm0-5.09c-.69,0-1.29,.51-1.38,1.21-.1,.76,.44,1.46,1.2,1.56,.37,.05,.73-.05,1.03-.28,.29-.23,.48-.55,.53-.92s-.05-.73-.28-1.03c-.23-.29-.55-.48-.92-.53-.06,0-.12-.01-.18-.01Z"/><path class="cls-1" d="M324.81,153.47c-.16,0-.32,0-.48-.03-2.03-.26-3.46-2.12-3.2-4.15,.26-2.03,2.12-3.46,4.15-3.2,.98,.13,1.85,.63,2.46,1.41s.87,1.75,.74,2.74c-.24,1.87-1.84,3.23-3.67,3.23Zm0-5.09c-.69,0-1.29,.51-1.38,1.21-.1,.76,.44,1.46,1.2,1.56,.76,.1,1.46-.44,1.56-1.2,.05-.37-.05-.73-.28-1.03-.23-.29-.55-.48-.92-.53-.06,0-.12-.01-.18-.01Z"/><path class="cls-1" d="M324.32,159.12c-.16,0-.32,0-.48-.03-2.03-.26-3.46-2.12-3.2-4.15h0c.26-2.03,2.12-3.46,4.15-3.2,2.03,.26,3.46,2.12,3.2,4.15-.24,1.87-1.84,3.23-3.67,3.23Zm-1.38-3.88h0c-.1,.76,.44,1.46,1.2,1.56,.76,.1,1.46-.44,1.56-1.2,.1-.76-.44-1.46-1.2-1.56-.76-.1-1.46,.44-1.56,1.2Z"/><path class="cls-1" d="M322.27,164.22c-.16,0-.32-.01-.48-.03-2.03-.26-3.46-2.12-3.2-4.15,.26-2.03,2.12-3.46,4.15-3.2,2.03,.26,3.46,2.12,3.2,4.15-.13,.98-.63,1.85-1.41,2.46-.65,.51-1.44,.77-2.26,.77Zm0-5.09c-.69,0-1.29,.51-1.38,1.21-.1,.76,.44,1.46,1.2,1.56,.37,.05,.73-.05,1.03-.28,.29-.23,.48-.55,.53-.92,.1-.76-.44-1.46-1.2-1.56-.06,0-.12-.01-.18-.01Z"/><path class="cls-1" d="M255.16,68.63c-5.17-5.49-7.28-10.41-6.28-14.62,1.22-5.08,6.5-7.04,6.73-7.12,.25-.09,.53-.09,.78,0,.22,.08,5.51,2.03,6.73,7.11,1.01,4.2-1.1,9.12-6.28,14.62l-.84-.79-.84,.79Zm.84-19.39c-1.09,.5-4.12,2.16-4.87,5.33-.75,3.18,.89,7.06,4.87,11.55,3.99-4.49,5.63-8.37,4.87-11.56-.75-3.16-3.78-4.82-4.87-5.32Z"/><path class="cls-1" d="M257.49,94.16l-1.51-.03c-9.69-.2-15.99-2.74-18.71-7.57-3.87-6.85,1.05-15.53,1.26-15.9l.65-1.13,1.04,.78c5.39,4.04,5.55,10.09,5.56,10.35l-2.31,.04s-.14-4.34-3.56-7.62c-1.1,2.46-3.07,8.02-.62,12.36,2.28,4.04,7.87,6.18,16.61,6.38h.08c8.81-.18,14.44-2.33,16.73-6.39,2.45-4.33,.48-9.9-.62-12.36-3.41,3.28-3.41,7.46-3.41,7.51l-2.31,.02c0-.25,0-6.25,5.41-10.3l1.04-.78,.65,1.13c.21,.37,5.13,9.05,1.26,15.9-2.58,4.58-8.39,7.11-17.26,7.52l.02,.08Z"/><path class="cls-1" d="M233.16,101.81c-2.52,0-7.45-.48-9.48-4.01-1.24-2.15-1.19-4.42,.13-6.4,2.48-3.72,9.11-5.81,15.74-4.95l-.29,2.29c-6.52-.84-11.83,1.41-13.52,3.94-.83,1.25-.85,2.58-.05,3.96,1.67,2.9,6.68,2.9,8.28,2.83,.06-.13,.1-.29,.06-.47-.09-.47-.6-.94-1.42-1.3-.51-.23-2.07-.92-2.15-2.27-.05-.83,.5-1.46,.98-1.75,.38-.23,.86-.22,1.23,.03,5.66,3.75,10.75,5.13,15.11,4.09,4.93-1.18,7.2-5.08,7.22-5.12,.21-.36,.59-.59,1.01-.59s.8,.22,1.01,.58c.02,.04,2.34,3.97,7.26,5.12,4.36,1.02,9.43-.35,15.08-4.1,.37-.25,.85-.26,1.23-.03,.48,.29,1.03,.92,.98,1.75-.08,1.35-1.64,2.05-2.15,2.27-.82,.36-1.33,.84-1.42,1.3-.03,.18,0,.34,.06,.47,1.59,.07,6.61,.06,8.28-2.83,.82-1.42,.79-2.8-.07-4.09-1.7-2.55-6.96-4.82-13.35-3.99l-.29-2.29c6.63-.85,13.04,1.21,15.57,5.01,1.35,2.03,1.41,4.35,.15,6.53-2.73,4.74-10.67,3.98-11.01,3.95-.26-.03-.51-.14-.7-.33-.76-.76-1.1-1.82-.91-2.83,.01-.06,.03-.13,.05-.2-4.34,1.98-8.38,2.55-12.06,1.67-3.92-.94-6.42-3.29-7.69-4.82-1.27,1.53-3.77,3.89-7.69,4.82-3.67,.88-7.71,.31-12.06-1.67,.02,.07,.03,.14,.05,.2,.19,1.02-.15,2.07-.91,2.83-.19,.19-.43,.31-.7,.33-.09,0-.67,.06-1.53,.06Z"/><path class="cls-1" d="M299.14,120.65h-33.34v-2.31h31.03v-4.02c0-1.7-1.39-3.09-3.09-3.09h-27.94s0-2.31,0-2.31h27.94c2.98,0,5.4,2.42,5.4,5.4v6.33Z"/><path class="cls-1" d="M256,130.07h-33.85c-5.07,0-9.43-3.61-10.39-8.57-.15-.77,.06-1.57,.56-2.18,.52-.62,1.27-.98,2.08-.98h31.74v2.31h-31.74c-.16,0-.26,.1-.3,.14-.05,.06-.1,.15-.07,.27,.74,3.88,4.16,6.7,8.12,6.7h70.24c1.27,0,5.13,0,5.66-6.69,.01-.15-.06-.26-.1-.3-.05-.05-.14-.12-.27-.12h-4.36v-2.31h4.36c.74,0,1.46,.31,1.97,.86,.51,.55,.77,1.3,.71,2.06-.45,5.69-3.27,8.82-7.96,8.82h-36.39Z"/><path class="cls-1" d="M215.18,119.49h-2.31v-5.18c0-2.98,2.42-5.4,5.4-5.4v2.31c-1.7,0-3.09,1.39-3.09,3.09v5.18Z"/><path class="cls-1" d="M246.34,111.23h-31.03v-6.33c0-2.98,2.42-5.4,5.4-5.4h70.58c2.98,0,5.4,2.42,5.4,5.4v5.18h-2.31v-5.18c0-1.7-1.39-3.09-3.09-3.09h-70.58c-1.7,0-3.09,1.39-3.09,3.09v4.02h28.71v2.31Z"/><path class="cls-1" d="M255.99,90.64h-.05c-11.87-.66-12.45-8.72-12.46-9.94-.32-2.15,.65-6.54,6.61-8.43,3.55-1.12,4.52-2.51,4.76-3.35-.12-.79,.03-1.35,.05-1.41l1.03-3.56,1.17,3.52c.03,.09,.2,.64,.1,1.44,.34,.96,1.59,2.33,4.87,3.36,5.97,1.89,6.93,6.29,6.61,8.44-.03,1.18-.7,8.88-12.42,9.93h-.27Zm.07-19.23c-1.07,1.27-2.84,2.3-5.27,3.07-5.66,1.79-5.04,5.76-5.01,5.93l.02,.13v.13c-.02,.28-.14,7.06,10.23,7.66h.06c10.33-.94,10.29-7.41,10.29-7.69v-.11s.02-.12,.02-.12c.02-.16,.58-4.16-5.01-5.93-2.75-.87-4.37-1.99-5.31-3.07Z"/><path class="cls-1" d="M256.05,126.77c-6.61,0-11.99-5.38-11.99-11.99s5.38-11.99,11.99-11.99,11.99,5.38,11.99,11.99-5.38,11.99-11.99,11.99Zm0-21.66c-5.33,0-9.67,4.34-9.67,9.67s4.34,9.67,9.67,9.67,9.67-4.34,9.67-9.67-4.34-9.67-9.67-9.67Z"/><path class="cls-1" d="M251.19,173.64c-16.62-3.94-17.72-15.84-17.76-16.35l2.28-.36c.09,.32,.78,.75,1.78,1.19-3.58-5.47-1.23-11.8-1.2-11.87l1.34-3.5,.79,3.34c.35-3.3,2.72-5.3,2.86-5.41l1.89-1.56v1.13c.62-5.04,4.1-7.68,4.28-7.81l2.33-1.73-.5,2.85c-.02,.1-.02,.2,0,.32,1.56-3.47,6.09-5.12,6.34-5.21l.39-.14,.39,.14c.25,.09,4.78,1.74,6.34,5.21,.01-.11,.01-.22,0-.32l-.5-2.85,2.33,1.73c.18,.13,3.65,2.77,4.28,7.81v-1.13l1.89,1.56c.13,.11,2.51,2.11,2.86,5.41l.79-3.34,1.34,3.5c.03,.08,2.38,6.4-1.2,11.87,1-.43,1.68-.86,1.78-1.18l2.28,.36c-.04,.5-1.14,12.4-17.76,16.35l-.53-2.25c9.89-2.35,13.67-7.67,15.11-11.11-1.62,.71-3.46,1.16-4.54,1.38l-5.19,1.06,4.27-3.13c4.19-3.07,4.49-7.35,4.17-10.02-.88,.71-1.76,.93-1.83,.95l-2.08,.5,.72-2.02c.9-2.5,0-4.44-.78-5.54-.47,.5-1.11,1.03-1.91,1.6l-2.3,1.63,.5-2.78c.7-3.92-.69-6.66-1.86-8.19-.61,1.33-1.59,2.37-1.76,2.55l-2.86,2.96,.9-4.02c.79-3.51-3.49-5.63-4.83-6.2-1.33,.57-5.62,2.71-4.83,6.21l.9,4.02-2.86-2.96c-.17-.17-1.15-1.22-1.76-2.55-1.18,1.53-2.57,4.26-1.86,8.19l.5,2.78-2.3-1.63c-.8-.57-1.44-1.1-1.91-1.6-.79,1.1-1.68,3.04-.78,5.54l.72,2.02-2.08-.5c-.06-.02-.96-.24-1.84-.96-.34,2.67-.04,6.93,4.19,10.03l4.27,3.13-5.19-1.06c-1.09-.22-2.93-.67-4.54-1.38,1.44,3.44,5.22,8.77,15.11,11.11l-.53,2.25Z"/><path class="cls-1" d="M286.87,177.93c-.02-.57-.29-14.07,10.45-20.5,5.36-3.21,6.35-6.54,6.37-8.53-1.77,1.14-4.52,1.86-7.83,.16-3.43-1.75-3.83-6.18-3.27-8.74,.53-2.39,2.54-4.17,4.9-4.32,1.01-.06,2.08,.25,2.91,.85,1.02,.74,1.63,1.88,1.72,3.21l.15,2.45-1.99-1.44c-.22-.15-1.12-.35-1.76-.1-.33,.13-.51,.34-.6,.7-.41,1.7-.06,3.06,.96,3.65,.95,.55,2.2,.29,3.2-.66,.51-.48,.88-1.16,1.1-2.02,.53-2.09-.21-4.52-1.94-6.32-1.41-1.47-4.69-3.74-10.78-2.45-.28,.05-6.23,1.26-7.31,6.98l-2.27-.43c1.37-7.3,8.82-8.77,9.13-8.83,7.16-1.52,11.16,1.3,12.9,3.12,2.28,2.38,3.24,5.63,2.51,8.49-.14,.53-.31,1.02-.54,1.47l.65,1.5c.13,.29,2.98,7.22-7.03,13.22-9.56,5.73-9.33,18.32-9.33,18.45l-2.31,.07Zm10.88-39.62s-.07,0-.11,0c-1.33,.08-2.48,1.11-2.79,2.51-.42,1.91-.06,5.09,2.06,6.18,.34,.17,.66,.31,.97,.42-.05-.03-.11-.06-.16-.09-1.51-.87-2.84-2.96-2.05-6.2,.27-1.12,1.01-1.95,2.07-2.34,.33-.12,.68-.19,1.02-.23-.36-.18-.73-.25-1.03-.25Z"/><path class="cls-1" d="M256,212.04s-.08,0-.12,0c-.61-.06-14.96-1.71-27.33-15.74-12.73-14.45-.43-29.09-.31-29.24,.27-.31,.68-.46,1.09-.38,9.81,1.79,17.67,13.44,18,13.93l-1.93,1.28c-.07-.11-7.27-10.77-15.82-12.8-1.97,2.59-9.52,14.06,.71,25.67,11.11,12.61,24.21,14.75,25.69,14.95,1.31-.18,14.52-2.24,25.73-14.96,10.23-11.61,2.67-23.08,.71-25.67-8.55,2.03-15.75,12.69-15.82,12.8l-1.93-1.28c.33-.5,8.19-12.14,18-13.93,.4-.07,.82,.07,1.09,.38,.13,.15,12.42,14.79-.31,29.24-11.95,13.56-25.75,15.55-27.22,15.73-.07,.02-.15,.02-.23,.02Z"/><path class="cls-1" d="M256,209.57c-.13,0-.26-.02-.38-.06-20.52-7.19-22.55-20.38-22.62-20.94-.09-.63,.36-1.22,.99-1.3,.63-.09,1.22,.36,1.3,.99,.02,.12,1.97,12.21,20.71,18.93,18.75-6.72,20.7-18.81,20.72-18.94,.09-.63,.68-1.07,1.31-.98,.63,.09,1.07,.67,.99,1.3-.08,.56-2.1,13.71-22.55,20.91-.15,.06-.3,.1-.46,.1Z"/><path class="cls-1" d="M256,213.99c-.08,0-.16,0-.24-.03-33.65-7.26-38.14-22.73-38.31-23.38-.16-.62,.2-1.25,.82-1.42,.62-.17,1.25,.2,1.42,.82,.04,.14,4.45,14.72,36.31,21.66,32.07-6.98,36.29-21.52,36.33-21.66,.16-.62,.8-.98,1.42-.82,.62,.16,.98,.8,.82,1.42-.17,.65-4.65,16.1-38.23,23.36-.11,.03-.22,.05-.33,.05Z"/><path class="cls-1" d="M256.14,215.7l-.27-2.3c19.12-2.24,31.37-9.17,31.5-9.24,11.56-6.9,17.69-15.84,18.2-26.55,.29-6.08-1.41-11.01-2.24-13.03-14.2,6.44-14.23,14.9-14.22,14.98l-2.31,.07c-.01-.42-.15-10.47,16.67-17.64l.99-.42,.49,.96c.14,.27,3.34,6.6,2.94,15.19-.37,7.93-4.03,19.3-19.34,28.43-.53,.3-12.77,7.25-32.4,9.54Z"/><path class="cls-1" d="M293.43,202.88l-1.26-1.94c12.87-8.33,17.23-18.01,17.27-18.11l2.12,.92c-.18,.42-4.63,10.39-18.13,19.13Z"/><path class="cls-1" d="M289.92,205.3l-1.06-2.06c18.18-9.32,27.37-19.64,31.87-26.66,3.19-4.97,4.55-9.02,5.1-11.24-15.51,5.46-18.08,13.98-18.11,14.07l-2.23-.61c.11-.42,3.02-10.47,21.51-16.29l1.67-.52-.17,1.74c-.02,.24-.62,5.94-5.72,13.95-4.65,7.3-14.13,18.01-32.86,27.62Z"/><path class="cls-1" d="M255.84,218.06v-2.31c.8,0,1.56,0,2.29-.02-.73,0-1.5-.02-2.29-.02v-2.31c15.13,0,15.13,1.35,15.13,2.33s0,2.33-15.13,2.33Z"/><path class="cls-1" d="M257.99,246.35c-.67,0-1.34,0-2.01-.02l.04-2.31c4.13,.08,8.14-.08,11.91-.47,3.9-.4,6.36-.94,7.03-1.09,.5-.35,.94-.81,1.33-1.36-.02-.48-.23-.92-.63-1.37-3.09-3.5-15.28-4.71-19.71-4.89-.62-.02-1.11-.53-1.11-1.16v-13.26c0-.63,.5-1.14,1.13-1.16,.84-.02,20.59-.37,25.07,6.94,.1,.16,.16,.34,.17,.53,.04,.57,.86,13.93-5.15,17.78-.1,.07-.22,.12-.34,.15-.11,.03-2.77,.7-7.55,1.2-3.25,.34-6.67,.5-10.18,.5Zm-.83-13.77c4.02,.24,16.44,1.31,20.24,5.61,.07,.08,.14,.16,.21,.25,1.31-3.75,1.44-8.75,1.31-11.26-3.21-4.6-15.83-5.6-21.76-5.61v11.02Z"/><path class="cls-1" d="M243.14,246.32c-.17,0-.34-.04-.5-.12-.57-.28-.82-.97-.54-1.55,1.96-4.04,11.05-4.78,16.11-4.59,3.21,.12,10.84,.82,12.31,4.56,.23,.59-.06,1.27-.65,1.5-.59,.23-1.27-.06-1.5-.65-.53-1.36-4.23-2.86-10.25-3.1-6.68-.25-12.93,1.21-13.94,3.28-.2,.41-.61,.65-1.04,.65Z"/><path class="cls-1" d="M236.57,244.69c-.07,0-.15,0-.22-.02-.63-.12-1.04-.73-.92-1.35,1.68-8.77,19.27-8.25,20.57-8.2,1.3-.05,18.88-.57,20.57,8.2,.12,.63-.29,1.23-.92,1.35-.62,.12-1.23-.29-1.35-.92-1.11-5.79-13.55-6.52-18.24-6.32-.03,0-.07,0-.1,0-4.7-.2-17.14,.55-18.25,6.33-.11,.55-.59,.94-1.13,.94Z"/><path class="cls-1" d="M266.79,235.19l-2.14-.88c1.07-2.59,1.15-10.38,1.09-13.17l2.31-.05c0,.43,.21,10.53-1.26,14.1Z"/><path class="cls-1" d="M272.63,237.33l-1.17-1.99c1.92-1.13,2.39-7.71,2.12-12.11-1.33-3.62-12.22-5.09-18.85-5.17l.03-2.31c1.95,.02,19.07,.41,21.07,6.92l.04,.13v.13c.14,2.01,.62,12.14-3.24,14.41Z"/><path class="cls-1" d="M248.13,266.81c-.08,0-.16,0-.25-.03-9.75-2.11-11.17-8.11-11.23-8.37-.07-.33,0-.67,.2-.94,3.85-5.15,12.42-6.99,19.15-6.99,0,0,0,0,0,0,6.73,0,15.3,1.83,19.14,6.98,.2,.27,.28,.61,.2,.94-.06,.25-1.48,6.25-11.23,8.37-.62,.13-1.24-.26-1.38-.89s.26-1.24,.89-1.38c6.73-1.46,8.76-4.85,9.29-6.12-2.95-3.41-9.49-5.59-16.92-5.59s-13.97,2.18-16.93,5.6c.53,1.26,2.55,4.66,9.29,6.12,.62,.14,1.02,.75,.89,1.38-.12,.54-.6,.91-1.13,.91Z"/><path class="cls-1" d="M275.33,258.5l-2.22-.66c.89-2.98,.71-5.66-.51-7.74-1.2-2.05-3.39-3.52-6.18-4.14l.51-2.26c3.42,.77,6.14,2.63,7.67,5.23,1.55,2.65,1.81,5.96,.73,9.57Z"/><path class="cls-1" d="M265.03,269.89h-2.31v-7.42c0-1.31-3.98-2.08-6.73-2.11l.02-2.31c1.51,.01,9.02,.29,9.02,4.42v7.42Z"/><rect class="cls-1" x="263.61" y="337.83" width="2.31" height=".48"/><path class="cls-1" d="M265.92,336.99h-2.31v-52.81l.52-.34c4.64-3.08,4.18-8.75,4.16-8.99v-.11c0-2.02-3.34-3.15-4.77-3.54-4.43-1.22-10.61-1.22-15.03,0-1.43,.4-4.76,1.53-4.76,3.55v.11c-.03,.24-.48,5.9,4.15,8.98l.52,.34v41.74h-2.31v-40.52c-5.05-3.77-4.72-9.99-4.66-10.71,.02-1.82,1.17-4.27,6.46-5.73,4.79-1.32,11.47-1.32,16.26,0,4.14,1.13,6.44,3.16,6.47,5.72,.06,.71,.39,6.94-4.67,10.72v51.59Z"/><rect class="cls-1" x="263.61" y="345.35" width="2.31" height="38.03"/><rect class="cls-1" x="246.08" y="385.8" width="2.31" height=".57"/><rect class="cls-1" x="246.08" y="366.62" width="2.31" height="115.94"/><rect class="cls-1" x="246.08" y="396.78" width="2.31" height="5.62"/><path class="cls-1" d="M265.92,336.99h-2.31v-51.9c-.56-.76-3.18-1.77-7.61-1.77-4.72,0-7.38,1.14-7.69,1.92l-2.15-.87c1.26-3.12,7.85-3.36,9.84-3.36h0c1.99,0,8.58,.24,9.84,3.36l.08,.21v52.41Z"/><rect class="cls-1" x="263.61" y="345.35" width="2.31" height="138.15"/><path class="cls-1" d="M256,167.77l-.63-.41c-5.61-3.62-8.42-7.63-8.36-11.91,.1-7.13,8.2-12.12,8.55-12.33l.61-.37,.6,.37c.34,.21,8.23,5.16,8.3,12.24,.04,4.31-2.8,8.34-8.44,11.99l-.63,.41Zm.15-22.26c-1.76,1.23-6.76,5.15-6.83,9.99-.04,3.28,2.2,6.47,6.67,9.51,4.52-3.06,6.79-6.29,6.76-9.6-.04-4.79-4.88-8.67-6.6-9.9Z"/><path class="cls-1" d="M268.49,79.42l-2.22-.66c2.54-8.52,1.16-14.1,.13-16.63-3.73,4.64-9.64,7.39-9.92,7.52l-.97-2.1c.07-.03,6.94-3.23,10.07-8.25l.93-1.49,1,1.44c.2,.29,4.85,7.15,.97,20.18Z"/><path class="cls-1" d="M280.71,169.42l-1.87-1.37c.48-.66,11.41-15.94,1.14-28.44-.96-1-1.89-1.81-2.77-2.42,1.54,3.55,3.47,9.65,1.86,15.31-1.11,3.9-3.72,6.94-7.74,9.04l-1.07-2.05c3.44-1.79,5.66-4.35,6.59-7.61,2.15-7.52-3.08-16.46-3.13-16.55l-1.37-2.32,2.63,.6c2.12,.49,4.32,1.93,6.71,4.43l.06,.06c11.47,13.9-.91,31.14-1.03,31.31Zm-.93-.68l-.93-.68s0,0,0,0l.93,.68Z"/><path class="cls-1" d="M256,207.7c-.27,0-.53-.09-.74-.27-7.42-5.72-11.22-12.14-11.3-19.08-.14-11.82,10.52-20.77,11.29-21.41,.4-.35,1.07-.36,1.48-.02h0c.47,.38,11.47,9.43,11.32,21.43-.08,6.94-3.89,13.36-11.31,19.09-.07,.06-.14,.11-.22,.15-.1,.05-.21,.08-.32,.1,0,0,0,0,0,0-.07,.01-.13,.02-.2,.02Zm-.16-21.68c.63,0,1.15,.51,1.16,1.15l.14,16.95c5.63-4.87,8.52-10.17,8.6-15.79,.12-9.18-7.34-16.78-9.73-18.98-2.4,2.2-9.85,9.8-9.73,18.98,.07,5.61,2.95,10.9,8.56,15.76l-.14-16.9c0-.64,.51-1.16,1.15-1.17h0Z"/><path class="cls-1" d="M256.05,40.36c-.16,0-.32,0-.48-.03-2.03-.26-3.46-2.12-3.2-4.15,.26-2.03,2.12-3.46,4.15-3.2,.98,.13,1.85,.63,2.46,1.41,.6,.78,.87,1.76,.74,2.74-.24,1.87-1.84,3.23-3.67,3.23Zm0-5.09c-.69,0-1.29,.51-1.38,1.21-.1,.76,.44,1.46,1.2,1.56,.76,.1,1.46-.44,1.56-1.2,.05-.37-.05-.73-.28-1.03-.23-.29-.55-.48-.92-.53-.06,0-.12-.01-.18-.01Z"/></g></svg>